Coordinates
version=1
nRows=17
nColumns=34
inDegrees=yes

Units are S.I. units (second, meters, Newtons, ...)
If the header above contains a line with 'inDegrees', this indicates whether rotational values are in degrees (yes) or radians (no).

endheader
time	pelvis_tilt	pelvis_list	pelvis_rotation	pelvis_tx	pelvis_ty	pelvis_tz	hip_flexion_r	hip_adduction_r	hip_rotation_r	knee_angle_r	ankle_angle_r	subtalar_angle_r	mtp_angle_r	hip_flexion_l	hip_adduction_l	hip_rotation_l	knee_angle_l	ankle_angle_l	subtalar_angle_l	mtp_angle_l	lumbar_extension	lumbar_bending	lumbar_rotation	arm_flex_r	arm_add_r	arm_rot_r	elbow_flex_r	pro_sup_r	arm_flex_l	arm_add_l	arm_rot_l	elbow_flex_l	pro_sup_l
      5.93333330	     -7.29238977	      2.64372896	      0.11264796	      0.04786604	      0.82162676	     -0.04933110	     18.55056100	     -7.12592218	    -18.09255256	     11.52216247	     -7.11612909	    -17.46101725	      0.00000000	     21.67433795	     -6.05065320	    -10.07874491	     16.21034710	     -2.58597909	     -8.98285132	      0.00000000	    -16.29699100	      1.63377327	     -0.40109160	     91.73649920	     -1.58852730	     67.93182707	    123.93100174	     98.01805613	    104.87264674	      3.50448669	     80.76616231	    116.49883118	     78.16388645
      5.95000000	     -7.53319719	      2.64075119	      0.01139586	      0.04038057	      0.81688681	     -0.04798853	     20.40434310	     -7.33391151	    -17.77905959	     13.22078013	     -7.57031432	    -19.09817002	      0.00000000	     23.45951440	     -6.29001072	     -9.36587978	     18.30270684	     -2.25775259	    -10.19501802	      0.00000000	    -17.53627581	      1.72587122	     -1.04690117	     93.28609282	     -0.81717600	     68.53426896	    120.96474359	     98.17118919	    106.42017913	      2.11856172	     81.05891680	    115.88292337	     78.06396740
      5.96666670	     -7.91983550	      2.67583622	      0.04229523	      0.04208320	      0.81705921	     -0.04982976	     22.02670814	     -7.72850922	    -17.95885886	     14.58889339	     -8.38110983	    -20.41127786	      0.00000000	     25.20744407	     -6.42363921	     -8.72968960	     20.15311609	     -1.99931156	    -11.06130116	      0.00000000	    -18.34238760	      1.68131138	     -1.57912646	     93.94987511	     -0.88976317	     69.76983359	    117.57650946	     98.11925696	    107.07714894	      1.91118283	     81.54790175	    115.64784839	     77.83867638
      5.98333330	     -8.35656289	      2.77654857	      0.08583742	      0.03766401	      0.81420953	     -0.04968402	     23.72868756	     -8.10550455	    -17.79122097	     15.98906367	     -8.86492917	    -21.65767823	      0.00000000	     27.00981620	     -6.42366521	     -8.12526076	     21.93664829	     -1.88430199	    -12.10490983	      0.00000000	    -19.26146136	      1.56687554	     -1.88005224	     94.76795549	     -0.80303640	     71.03140056	    115.68558683	     97.82694071	    107.83993379	      1.98259930	     82.32978030	    115.99465994	     77.54266492
      6.00000000	     -8.67473858	      2.75371477	      0.05005945	      0.03474071	      0.81077222	     -0.04974143	     25.31765421	     -8.37253943	    -17.31642453	     17.57109660	     -8.87127957	    -22.59480543	      0.00000000	     28.62251025	     -6.54966126	     -7.46674294	     23.83601603	     -1.57610535	    -13.04562601	      0.00000000	    -20.08903438	      1.55597904	     -2.09116390	     95.34462696	     -0.82453228	     71.71589529	    113.34528301	     97.34389387	    108.14081892	      2.08478879	     82.78734719	    115.90966332	     77.14857006
      6.01666670	     -8.61718916	      2.74329146	      0.17318703	      0.03271356	      0.80521162	     -0.04969964	     26.64017175	     -8.73003958	    -16.78841404	     19.65497730	     -8.20796051	    -23.39146821	      0.00000000	     29.89186773	     -6.58293911	     -6.76107154	     25.89381485	     -0.63920396	    -13.70613079	      0.00000000	    -21.41613303	      1.59147356	     -2.16961690	     96.08400833	     -0.83602406	     71.71046415	    113.05346533	     97.19489408	    108.72077250	      2.28737765	     82.85890071	    115.88193527	     77.05221820
      6.03333330	     -9.10925418	      2.75353776	     -0.08801271	      0.02858494	      0.79949437	     -0.04933910	     28.82718174	     -8.82679848	    -15.43009073	     21.86382745	     -8.06911975	    -24.81187185	      0.00000000	     31.78259354	     -6.78664464	     -6.21119324	     28.03871398	     -0.42952082	    -14.77855470	      0.00000000	    -21.99824234	      1.53476146	     -2.02456575	     96.78037290	     -0.77774431	     72.44422778	    112.89368971	     96.64755620	    109.36424535	      2.40934116	     83.50133270	    116.04538861	     76.68173241
      6.05000000	     -8.81150081	      2.63034130	     -0.28187099	      0.02440466	      0.79493467	     -0.04935971	     29.96217055	     -8.78691620	    -14.14206534	     24.27433642	     -7.08544830	    -25.49917606	      0.00000000	     33.00439227	     -7.08132675	     -5.63978233	     30.47680661	      0.39322104	    -15.61700838	      0.00000000	    -23.47347045	      1.57515077	     -2.30050280	     97.13467312	     -0.88765732	     72.35282059	    112.43118844	     96.49905566	    109.91481782	      1.67342470	     83.52771265	    115.32375659	     76.56703002
      6.06666670	     -9.12918227	      2.71417932	     -0.68959145	      0.01775740	      0.79188429	     -0.04782239	     32.09368603	     -8.78715772	    -12.31987805	     26.82735304	     -6.43438227	    -26.44410565	      0.00000000	     34.85447072	     -7.30596195	     -5.20385505	     32.85743769	      0.62148444	    -16.34512425	      0.00000000	    -24.39267014	      1.50773658	     -2.21738819	     97.59910297	     -0.16661161	     72.83373583	    113.18163428	     96.20303851	    110.58798278	      1.93893140	     83.93637011	    115.74772784	     76.34963999
      6.08333330	     -9.03162526	      2.64619856	     -1.01366774	      0.01518099	      0.78685457	     -0.04795185	     33.61755155	     -8.55896738	    -10.39237114	     29.33015764	     -5.37510002	    -27.28156916	      0.00000000	     36.25159843	     -7.60385654	     -4.59911418	     35.26876663	      1.32181185	    -17.12603130	      0.00000000	    -25.67529029	      1.53343376	     -1.94957493	     97.83826874	      0.07147536	     73.03519620	    113.19215524	     95.94935050	    110.88104400	      1.85386729	     84.11788504	    115.43455913	     76.12613058
      6.10000000	     -9.29362073	      2.63201437	     -1.34044512	      0.01100551	      0.78040549	     -0.04876293	     35.69938597	     -8.42767357	     -9.08050033	     31.85499946	     -4.62862498	    -28.48439703	      0.00000000	     38.14820349	     -7.84799134	     -4.08833968	     37.83504510	      2.36736672	    -17.56868255	      0.00000000	    -26.79489726	      1.44477640	     -1.84807967	     98.25417838	      0.23271201	     73.02826433	    112.67488957	     95.58669500	    111.61124273	      1.33098622	     84.36011379	    114.94954767	     75.83294950
      6.11666670	     -9.59300325	      2.60163203	     -1.76565464	      0.00737136	      0.77687605	     -0.04908681	     37.84260925	     -8.09674252	     -7.38148461	     34.24440202	     -3.88525905	    -29.20646951	      0.00000000	     39.95653428	     -8.18356230	     -3.82609519	     40.16089273	      3.72376468	    -17.68588751	      0.00000000	    -27.61451188	      1.47474610	     -1.66423732	     98.17362263	      0.33613256	     72.65167064	    110.24243347	     94.79375974	    111.87626962	      0.62364749	     84.75997989	    114.61931584	     75.23294843
      6.13333330	     -9.96764950	      2.44978756	     -1.62011557	      0.00316506	      0.76981203	     -0.04885850	     39.59906475	     -7.94921782	     -6.45054032	     36.27573267	     -2.49328270	    -29.45457993	      0.00000000	     42.01024346	     -8.36498532	     -3.19957500	     42.48214864	      5.24041123	    -17.52799533	      0.00000000	    -28.63324842	      1.85899937	     -1.82060346	     98.90256098	      1.22366658	     71.49040259	    105.92756770	     90.29360441	    112.31570731	     -0.02999710	     84.42365906	    115.81134957	     72.09124938
      6.15000000	    -10.41320309	      2.50743365	     -1.86865413	     -0.00445022	      0.76510313	     -0.04762267	     41.66735049	     -7.73248626	     -5.18342030	     38.32050002	     -1.80190696	    -29.62065753	      0.00000000	     44.00479630	     -8.63734621	     -2.96200163	     44.56550675	      5.81628948	    -17.89837075	      0.00000000	    -29.71463163	      1.34126518	     -1.16567255	     99.90728523	      1.06092964	     70.05272741	    101.96638897	     89.22296855	    113.02448516	      0.94332926	     84.63816711	    114.40273662	     71.42385718
      6.16666670	    -10.77461954	      2.37749516	     -1.61314354	     -0.00531605	      0.75687873	     -0.04849099	     43.53671576	     -7.73707059	     -4.50494789	     40.71266226	      0.27195186	    -28.76226079	      0.00000000	     46.12541549	     -8.73707000	     -2.25079522	     46.76615504	      6.45570670	    -18.15200903	      0.00000000	    -30.83962420	      1.63533884	     -1.06958837	    101.02515663	      1.54407218	     69.32430550	     99.01426067	     84.06985959	    113.63753881	      0.73496110	     84.44500465	    115.35623030	     68.38601912
      6.18333330	    -11.10802204	      2.40751615	     -1.82827149	     -0.00625889	      0.74951975	     -0.04944446	     45.76284443	     -7.58354673	     -3.83826244	     43.16624934	      0.86881913	    -29.43920551	      0.00000000	     47.87316369	     -8.99552102	     -2.04611499	     48.96815249	      7.18958455	    -18.52886264	      0.00000000	    -31.92747148	      1.32202181	     -0.40606383	    102.23996568	      1.39779416	     68.72408479	     97.47328196	     83.71548458	    114.37738653	      1.77688294	     84.54845089	    115.29972477	     68.20908344
      6.20000000	    -11.46153748	      2.47047075	     -2.13586975	     -0.01348808	      0.74273403	     -0.04929519	     48.14045649	     -7.35528017	     -2.95240432	     45.87184016	      1.31153261	    -29.74732856	      0.00000000	     49.86104760	     -9.25419209	     -1.90804480	     51.10022443	      7.51591860	    -18.94518003	      0.00000000	    -32.85391703	      1.02132483	     -0.23416169	    103.17318928	      1.66080891	     68.29940825	     96.58177778	     83.32580549	    114.85071463	      1.89055424	     84.39761993	    115.08233380	     67.99949466
